<svg width="124" height="124" viewBox="0 0 107 107" fill="none" xmlns="http://www.w3.org/2000/svg">
<path d="M65.4385 0H52.8999H40.3623L27.8242 15.4121L52.8999 43.7079L77.977 15.4121L65.4385 0Z" fill="#CDCDCD"/>
<path d="M81.0482 32.6255L86.7473 26.1922L83.2188 21.8564L69.6589 37.1581C76.0766 42.1689 80.2771 49.889 80.2771 58.6621C80.2771 73.7804 68.0186 86.0384 52.9007 86.0384C37.7834 86.0384 25.5267 73.7804 25.5267 58.6621C25.5267 49.8885 29.7258 42.1689 36.144 37.1581L22.5836 21.856L19.055 26.1917L24.7533 32.6251C18.4045 39.4778 14.4828 48.6062 14.4828 58.6616C14.4828 67.4681 17.4931 75.5698 22.4972 82.0579L4.88246 99.6731C3.26444 101.292 3.26444 103.912 4.88246 105.529C5.69058 106.338 6.75071 106.742 7.81083 106.742C8.86962 106.742 9.92886 106.338 10.737 105.529L28.2124 88.0531C34.8959 93.6779 43.5025 97.0804 52.8999 97.0804C74.0846 97.0804 91.3182 79.8455 91.3182 58.6616C91.3187 48.6062 87.397 39.4778 81.0482 32.6255Z" fill="#41887D"/>
</svg>
